<?xml version="1.0" encoding="UTF-8"?>
<svg id="Layer_1" data-name="Layer 1" xmlns="http://www.w3.org/2000/svg" xmlns:xlink="http://www.w3.org/1999/xlink" viewBox="0 0 152 29.5">
  <defs>
    <style>
      .cls-1 {
        fill: url(#linear-gradient);
      }

      .cls-1, .cls-2, .cls-3 {
        stroke-width: 0px;
      }

      .cls-2 {
        fill: #fff;
      }

      .cls-3 {
        fill: #002054;
      }
    </style>
    <linearGradient id="linear-gradient" x1="0" y1="14.74" x2="29.41" y2="14.74" gradientUnits="userSpaceOnUse">
      <stop offset="0" stop-color="#733de4"/>
      <stop offset="1" stop-color="#00257c"/>
    </linearGradient>
  </defs>
  <g>
    <path class="cls-3" d="M46.92,6.76v1.99c0,.37-.3.68-.68.68h-7.39c-.37,0-.68.3-.68.68v2.83c0,.37.3.68.68.68h6.22c.37,0,.68.3.68.68v1.74c0,.37-.3.68-.68.68h-6.22c-.37,0-.68.3-.68.68v6.12c0,.37-.3.68-.68.68h-2.62c-.37,0-.68-.3-.68-.68V6.76c0-.37.3-.68.68-.68h11.36c.37,0,.68.3.68.68Z"/>
    <path class="cls-3" d="M48.95,8.37v-1.61c0-.37.3-.68.68-.68h2.24c.37,0,.68.3.68.68v1.61c0,.37-.3.68-.68.68h-2.24c-.37,0-.68-.3-.68-.68ZM52.55,11.76v11.74c0,.37-.3.68-.68.68h-2.24c-.37,0-.68-.3-.68-.68v-11.74c0-.37.3-.68.68-.68h2.24c.37,0,.68.3.68.68Z"/>
    <path class="cls-3" d="M58.13,11.08c.37,0,.68.3.68.68v1.75h.05c.17-.41.4-.78.68-1.13.29-.35.62-.64.99-.89.37-.24.77-.43,1.19-.57.42-.13.86-.2,1.32-.2.05,0,.1,0,.14,0,.36.02.64.32.64.68v2.79c-.17-.03-.37-.06-.61-.09-.24-.03-.47-.04-.68-.04-.66,0-1.22.11-1.67.33-.46.22-.82.52-1.1.9-.28.38-.48.82-.6,1.33s-.18,1.06-.18,1.65v5.23c0,.37-.3.68-.68.68h-2.24c-.37,0-.68-.3-.68-.68v-11.74c0-.37.3-.68.68-.68h2.07Z"/>
    <path class="cls-3" d="M68.27,20.92c.16.28.37.51.62.68.25.18.54.31.87.39.33.08.67.13,1.03.13.25,0,.52-.03.8-.09.28-.06.53-.15.76-.28.23-.13.42-.3.57-.51.15-.21.23-.48.23-.8,0-.54-.36-.95-1.08-1.22-.72-.27-1.72-.54-3-.81-.52-.12-1.03-.26-1.53-.42-.5-.16-.94-.37-1.33-.63-.39-.26-.7-.59-.94-.99-.24-.4-.35-.88-.35-1.46,0-.84.16-1.54.49-2.08.33-.54.76-.97,1.31-1.28.54-.31,1.15-.53,1.82-.66s1.37-.19,2.08-.19,1.4.07,2.07.2c.67.14,1.26.36,1.79.68.52.32.96.75,1.3,1.28.22.33.38.72.49,1.16s-.21.85-.66.85h-2.05c-.3,0-.58-.19-.66-.48-.12-.44-.35-.75-.71-.93-.47-.24-1.03-.37-1.67-.37-.2,0-.42.01-.66.04-.24.03-.45.08-.65.16-.19.08-.36.21-.49.37-.14.16-.2.38-.2.65,0,.32.12.58.36.79.24.2.54.37.92.49s.81.24,1.3.34c.49.1.99.21,1.49.33.52.12,1.03.26,1.53.43.5.17.94.39,1.33.67.39.28.7.62.94,1.04.24.41.36.92.36,1.53,0,.86-.17,1.58-.52,2.17-.35.58-.8,1.05-1.36,1.41s-1.2.6-1.91.75c-.72.14-1.45.22-2.19.22s-1.5-.08-2.23-.23c-.73-.15-1.37-.41-1.94-.76-.57-.35-1.03-.82-1.39-1.41-.25-.39-.42-.85-.51-1.38-.08-.42.24-.81.67-.81h2.07c.31,0,.59.22.66.52.04.17.1.33.19.48Z"/>
    <path class="cls-3" d="M86.04,11.76v1.05c0,.37-.3.68-.68.68h-1.28c-.37,0-.68.3-.68.68v5.81c0,.61.1,1.01.3,1.22s.61.3,1.22.3c.2,0,.4,0,.58-.03.19-.02.36-.04.53-.08v2.19c0,.35-.26.65-.61.68-.13.01-.26.02-.4.03-.37.02-.74.03-1.09.03-.56,0-1.09-.04-1.58-.11-.5-.08-.94-.22-1.32-.44-.38-.22-.68-.53-.9-.94-.22-.41-.33-.94-.33-1.6v-7.05c0-.37-.3-.68-.68-.68h-.82c-.37,0-.68-.3-.68-.68v-1.05c0-.37.3-.68.68-.68h.82c.37,0,.68-.3.68-.68v-2.57c0-.37.3-.68.68-.68h2.24c.37,0,.68.3.68.68v2.57c0,.37.3.68.68.68h1.28c.37,0,.68.3.68.68Z"/>
    <path class="cls-3" d="M90.59,11.08c.37,0,.68.3.68.68v1.1h.05c.47-.68,1.04-1.2,1.71-1.57.67-.37,1.43-.56,2.29-.56s1.58.16,2.27.48c.43.2.8.51,1.1.91.26.34.74.39,1.04.09s.62-.56,1-.81c.67-.44,1.46-.66,2.37-.66.69,0,1.33.08,1.93.25.59.17,1.1.44,1.52.81.42.37.75.86.99,1.46.24.6.35,1.32.35,2.17v8.09c0,.37-.3.68-.68.68h-2.24c-.37,0-.68-.3-.68-.68v-6.75c0-.44-.02-.85-.05-1.24-.03-.39-.13-.73-.28-1.01-.15-.29-.38-.51-.67-.68-.3-.17-.7-.25-1.2-.25s-.92.1-1.23.29c-.31.19-.56.45-.74.76-.18.31-.3.67-.35,1.06-.06.4-.09.8-.09,1.2v6.62c0,.37-.3.68-.68.68h-2.24c-.37,0-.68-.3-.68-.68v-6.67c0-.39,0-.77-.03-1.15-.02-.38-.09-.73-.22-1.05-.13-.32-.34-.58-.63-.77-.3-.19-.73-.29-1.3-.29-.17,0-.39.04-.67.11-.28.08-.55.22-.81.43-.26.21-.49.52-.67.91-.19.4-.28.92-.28,1.56v6.92c0,.37-.3.68-.68.68h-2.24c-.37,0-.68-.3-.68-.68v-11.74c0-.37.3-.68.68-.68h2.04Z"/>
    <path class="cls-3" d="M110.8,14.79c.32-.85.78-1.58,1.37-2.18.59-.6,1.3-1.06,2.13-1.39.83-.33,1.76-.49,2.79-.49s1.96.16,2.8.49c.84.33,1.55.79,2.14,1.39.59.6,1.05,1.33,1.37,2.18.32.85.48,1.8.48,2.85s-.16,1.99-.48,2.84c-.32.84-.78,1.57-1.37,2.17-.59.6-1.31,1.06-2.14,1.38s-1.77.48-2.8.48-1.96-.16-2.79-.48c-.83-.32-1.54-.78-2.13-1.38-.59-.6-1.05-1.32-1.37-2.17-.32-.84-.48-1.79-.48-2.84s.16-2,.48-2.85ZM114.07,19.17c.1.5.27.95.52,1.34.24.4.57.71.98.95.41.24.91.35,1.52.35s1.12-.12,1.53-.35c.41-.24.74-.55.99-.95.24-.4.42-.84.52-1.34.1-.5.15-1.01.15-1.53s-.05-1.04-.15-1.55c-.1-.51-.27-.95-.52-1.34-.25-.39-.57-.71-.99-.95-.41-.24-.92-.37-1.53-.37s-1.11.12-1.52.37c-.41.25-.73.56-.98.95-.25.39-.42.84-.52,1.34s-.15,1.02-.15,1.55.05,1.03.15,1.53Z"/>
    <path class="cls-3" d="M129.29,23.72l-4.02-11.74c-.15-.44.18-.9.64-.9h2.33c.3,0,.56.19.65.48l2.61,8.47h.05l2.61-8.47c.09-.28.35-.48.65-.48h2.13c.46,0,.79.46.64.9l-3.98,11.74c-.09.28-.35.46-.64.46h-3.03c-.29,0-.55-.18-.64-.46Z"/>
    <path class="cls-3" d="M143.23,21.04c.54.52,1.32.79,2.33.79.73,0,1.35-.18,1.87-.54.37-.26.64-.53.81-.81.12-.2.33-.34.56-.34h1.77c.5,0,.82.52.61.97-.49,1.07-1.14,1.87-1.96,2.4-1.05.68-2.31,1.01-3.8,1.01-1.03,0-1.96-.16-2.79-.49-.83-.33-1.53-.8-2.1-1.41s-1.02-1.33-1.33-2.18c-.31-.84-.47-1.77-.47-2.79s.16-1.89.48-2.74c.32-.84.78-1.57,1.37-2.19.59-.62,1.3-1.1,2.12-1.46.82-.35,1.73-.53,2.72-.53,1.11,0,2.09.22,2.91.65s1.51,1.01,2.04,1.74.92,1.55,1.15,2.48c.18.72.27,1.46.28,2.23,0,.38-.3.68-.68.68h-8.04c-.42,0-.74.39-.67.81.13.76.4,1.33.8,1.73ZM147.3,14.14c-.43-.47-1.09-.71-1.96-.71-.57,0-1.05.1-1.43.29s-.68.43-.91.72c-.23.29-.39.59-.48.91,0,0,0,0,0,0-.12.43.21.85.66.85h4.16c.47,0,.8-.46.64-.9-.17-.48-.39-.87-.66-1.17Z"/>
  </g>
  <circle class="cls-1" cx="14.71" cy="14.74" r="14.7"/>
  <path class="cls-2" d="M21,10.47h-10.94c-.57,0-.92-.43-.79-.97l.59-2.44c.13-.54.69-.97,1.26-.97h10.94c.57,0,.92.43.79.97l-.59,2.44c-.13.54-.69.97-1.26.97Z"/>
  <path class="cls-2" d="M9.79,24.18h-3.57c-.28,0-.46-.22-.39-.49,2.89-10.97,4.84-11.46,15.25-11.46.28,0,.46.22.39.48l-.82,3.38c-.06.27-.34.48-.63.48-4.55.04-7.92.75-9.61,7.13-.07.26-.35.48-.63.48Z"/>
</svg>